<svg xmlns="http://www.w3.org/2000/svg" xmlns:xlink="http://www.w3.org/1999/xlink" width="450" height="450" viewBox="0 0 450 450">
  <defs>
    <clipPath id="clip-ASUS_TUF_Gaming_Logo">
      <rect width="450" height="450"/>
    </clipPath>
  </defs>
  <g id="ASUS_TUF_Gaming_Logo" data-name="ASUS TUF Gaming Logo" clip-path="url(#clip-ASUS_TUF_Gaming_Logo)" fill="#FFB000">
    <path id="Path_1670" data-name="Path 1670" d="M28.642-55.926H.312V-45.4H7.818V0H21.135V-45.4h7.506Zm36,0H51.321v45.4H45.51v-45.4H32.193V-8.112L41.071,0H56l8.636-8.112Zm33.6,0H72.408V0H85.725V-24.336h10.17v-10.53H85.725V-45.4h12.51Zm56.154,8.112-9.04-8.112H130.5l-8.878,8.112v39.7L130.9,0h14.689l8.8-8.112v-21.06H137.763v10.53h3.309v8.112h-6.134V-45.4h6.134v10.452h13.317Zm31.745-8.112h-19.29L158.693,0h12.994l1.13-10.3h7.748L181.7,0H194.77Zm-6.538,35.1h-5.811L175.8-44.07h1.291Zm64.166-35.1H228.105L223.747-28.86h-1.211l-4.681-27.066H202.2V0h12.187V-35.49h.565L220.518,0h4.923l5.569-35.49h.565V0h12.187Zm22.6,0H253.05V0h13.317Zm41.682,0h-12.51v26.91h-.161l-8.555-26.91H275.684V0h12.51V-27.222h.161L296.992,0h11.057Zm41.093,8.112-9.04-8.112H325.252l-8.878,8.112v39.7L325.656,0h14.689l8.8-8.112v-21.06H332.516v10.53h3.309v8.112h-6.134V-45.4h6.134v10.452h13.317Z" transform="translate(50.273 399.5)"/>
    <path id="Path_1671" data-name="Path 1671" d="M8614-1622.062,8678-1659v162.028L8614-1460Zm-80,125.089V-1659l64,36.939V-1460Zm160-101.21,64-36.939v54.809l-64,36.972Zm-240,17.87V-1704l64,36.939v123.719Zm240-86.747L8758-1704v54.806l-64,36.974Z" transform="translate(-8381.728 1754.5)"/>
  </g>
</svg>
